# xmcd
#
# Track frame offsets:
#	150
#	12312
#	31247
#	45116
#	62905
#	79211
#	94114
#	110814
#	128863
#	144865
#	164304
#	181395
#	193657
#	211420
#	227687
#	243891
#	260824
#	281320
#	297945
#	316257
#	335445
#
# Disc length: 4632 seconds
#
# Revision: 1
# Processed by: cddbd v1.5.2PL0 Copyright (c) Steve Scherf et al.
# Submitted via: EasyCDDAExtractor 11.0.2.1
#
DISCID=29121615
DTITLE=Various Artist - The Best Of Country Music Channel [cd1]
DYEAR=2007
DGENRE=Country
TTITLE0=Steve Forde - Aussie Philosophy
TTITLE1=Keith Urban - Once In A Lifetime
TTITLE2=Lee Kernaghan - Listen To The Radio
TTITLE3=Beccy Cole - Poster Girl (Wrong Side Of The World)
TTITLE4=Adam Brand - Cigarettes and Whiskey
TTITLE5=Kasey Chambers - Nothing At All
TTITLE6=Catherine Britt - Swingin' Door
TTITLE7=James Blundell - Higher Than Heaven
TTITLE8=The Sunny Cowgirls - Six Pack Short
TTITLE9=Travis Collins - Full Tank
TTITLE10=The Mcclymonts - Something That My Heart Does
TTITLE11=Luke O'shea and Medicine Wheel - Making Memories
TTITLE12=Melinda Schneider - Big World Small World
TTITLE13=Paul Costa - The Way You Make Me Feel (Duet with Aleyce Simmonds)
TTITLE14=Dianna Corcoran - Then There's Me
TTITLE15=Nick Kingswell - Hope For Me Yet
TTITLE16=Matt Scullion Featuring Lawrie - Hard Earned Money
TTITLE17=Nick Gillis - Leavin' You For Myself
TTITLE18=The Bobkatz - Little River Town (Howlong NSW)
TTITLE19=Amber Lawrence - The Lonely Road
TTITLE20=Davidson Brothers - Raised On The Road
EXTD=
EXTT0=
EXTT1=
EXTT2=
EXTT3=
EXTT4=
EXTT5=
EXTT6=
EXTT7=
EXTT8=
EXTT9=
EXTT10=
EXTT11=
EXTT12=
EXTT13=
EXTT14=
EXTT15=
EXTT16=
EXTT17=
EXTT18=
EXTT19=
EXTT20=
PLAYORDER=
